<svg width="907" height="650" viewBox="0 0 907 650" fill="none" xmlns="http://www.w3.org/2000/svg">
<path d="M252.285 203.374V338.14L426.072 419L604.259 338.14V208.275L558.062 227.877V311.187L426.072 365.094L291.882 311.187V222.977L252.285 203.374Z" fill="black"/>
<path d="M474.468 36.7544C467.869 26.1365 460.83 7.84094 485.468 0L694.453 95.5614C706.185 100.462 722.61 116.144 694.453 139.667L485.468 235.228C474.469 231.961 456.87 213.666 474.468 186.222L628.457 117.614L474.468 36.7544Z" fill="black"/>
<path d="M166.491 90.6608C153.292 98.8285 134.813 119.084 166.491 134.766C198.169 150.448 316.08 205.008 371.076 230.327C384.275 228.694 405.833 217.586 386.475 186.222L228.086 112.713L386.475 36.7544C393.074 25.3197 399.234 0.980117 371.076 0L166.491 90.6608Z" fill="#1862F2"/>
<path d="M37.632 489.784C47.36 489.784 55.7653 491.619 62.848 495.288C70.016 498.872 75.4773 504.035 79.232 510.776C83.072 517.517 84.992 525.453 84.992 534.584C84.992 543.715 83.072 551.651 79.232 558.392C75.4773 565.048 70.016 570.168 62.848 573.752C55.7653 577.251 47.36 579 37.632 579H9.856V489.784H37.632ZM37.632 569.4C49.152 569.4 57.9413 566.371 64 560.312C70.0587 554.168 73.088 545.592 73.088 534.584C73.088 523.491 70.016 514.829 63.872 508.6C57.8133 502.371 49.0667 499.256 37.632 499.256H21.504V569.4H37.632ZM156.036 541.24C156.036 543.459 155.908 545.805 155.652 548.28H99.588C100.015 555.192 102.361 560.611 106.628 564.536C110.98 568.376 116.228 570.296 122.372 570.296C127.407 570.296 131.588 569.144 134.916 566.84C138.329 564.451 140.719 561.293 142.084 557.368H154.628C152.751 564.109 148.996 569.613 143.364 573.88C137.732 578.061 130.735 580.152 122.372 580.152C115.716 580.152 109.743 578.659 104.452 575.672C99.2467 572.685 95.1507 568.461 92.164 563C89.1773 557.453 87.684 551.053 87.684 543.8C87.684 536.547 89.1347 530.189 92.036 524.728C94.9373 519.267 98.9907 515.085 104.196 512.184C109.487 509.197 115.545 507.704 122.372 507.704C129.028 507.704 134.916 509.155 140.036 512.056C145.156 514.957 149.081 518.968 151.812 524.088C154.628 529.123 156.036 534.84 156.036 541.24ZM144.004 538.808C144.004 534.371 143.023 530.573 141.06 527.416C139.097 524.173 136.409 521.741 132.996 520.12C129.668 518.413 125.956 517.56 121.86 517.56C115.972 517.56 110.937 519.437 106.756 523.192C102.66 526.947 100.313 532.152 99.716 538.808H144.004ZM174.483 489.784V546.232C174.483 554.168 176.403 560.056 180.243 563.896C184.168 567.736 189.587 569.656 196.499 569.656C203.326 569.656 208.659 567.736 212.499 563.896C216.424 560.056 218.387 554.168 218.387 546.232V489.784H230.035V546.104C230.035 553.528 228.542 559.8 225.555 564.92C222.568 569.955 218.515 573.709 213.395 576.184C208.36 578.659 202.686 579.896 196.371 579.896C190.056 579.896 184.339 578.659 179.219 576.184C174.184 573.709 170.174 569.955 167.187 564.92C164.286 559.8 162.835 553.528 162.835 546.104V489.784H174.483ZM275.322 507.576C283.855 507.576 290.767 510.179 296.058 515.384C301.349 520.504 303.994 527.928 303.994 537.656V579H292.474V539.32C292.474 532.323 290.725 526.989 287.226 523.32C283.727 519.565 278.949 517.688 272.89 517.688C266.746 517.688 261.839 519.608 258.17 523.448C254.586 527.288 252.794 532.877 252.794 540.216V579H241.146V508.856H252.794V518.84C255.098 515.256 258.213 512.483 262.138 510.52C266.149 508.557 270.543 507.576 275.322 507.576ZM310.349 543.672C310.349 536.504 311.8 530.232 314.701 524.856C317.602 519.395 321.57 515.171 326.605 512.184C331.725 509.197 337.4 507.704 343.629 507.704C349.773 507.704 355.106 509.027 359.629 511.672C364.152 514.317 367.522 517.645 369.741 521.656V508.856H381.517V579H369.741V565.944C367.437 570.04 363.981 573.453 359.373 576.184C354.85 578.829 349.56 580.152 343.501 580.152C337.272 580.152 331.64 578.616 326.605 575.544C321.57 572.472 317.602 568.163 314.701 562.616C311.8 557.069 310.349 550.755 310.349 543.672ZM369.741 543.8C369.741 538.509 368.674 533.901 366.541 529.976C364.408 526.051 361.506 523.064 357.837 521.016C354.253 518.883 350.285 517.816 345.933 517.816C341.581 517.816 337.613 518.84 334.029 520.888C330.445 522.936 327.586 525.923 325.453 529.848C323.32 533.773 322.253 538.381 322.253 543.672C322.253 549.048 323.32 553.741 325.453 557.752C327.586 561.677 330.445 564.707 334.029 566.84C337.613 568.888 341.581 569.912 345.933 569.912C350.285 569.912 354.253 568.888 357.837 566.84C361.506 564.707 364.408 561.677 366.541 557.752C368.674 553.741 369.741 549.091 369.741 543.8Z" fill="black"/>
<path d="M394.328 578C393.56 578 392.877 577.744 392.28 577.232C391.768 576.635 391.512 575.952 391.512 575.184C391.512 574.843 391.597 574.544 391.768 574.288L420.952 492.368C421.208 491.429 421.763 490.533 422.616 489.68C423.555 488.827 424.792 488.4 426.328 488.4H449.752C451.373 488.4 452.611 488.827 453.464 489.68C454.317 490.533 454.872 491.429 455.128 492.368L484.44 574.288C484.525 574.544 484.568 574.843 484.568 575.184C484.568 575.952 484.269 576.635 483.672 577.232C483.16 577.744 482.52 578 481.752 578H462.04C460.589 578 459.523 577.659 458.84 576.976C458.157 576.293 457.688 575.653 457.432 575.056L453.464 564.304H422.616L418.648 575.056C418.392 575.653 417.923 576.293 417.24 576.976C416.643 577.659 415.576 578 414.04 578H394.328ZM428.504 542.672H447.576L437.976 513.872L428.504 542.672ZM484.869 602.32C483.93 602.32 483.12 601.979 482.437 601.296C481.84 600.699 481.541 599.931 481.541 598.992V514.768C481.541 513.829 481.84 513.061 482.437 512.464C483.12 511.781 483.93 511.44 484.869 511.44H502.917C503.856 511.44 504.624 511.781 505.221 512.464C505.904 513.061 506.245 513.829 506.245 514.768V518.992C508.293 516.432 510.896 514.341 514.053 512.72C517.21 511.013 521.093 510.16 525.701 510.16C529.712 510.16 533.296 510.757 536.453 511.952C539.696 513.147 542.512 514.981 544.901 517.456C547.29 519.845 549.168 522.917 550.533 526.672C551.898 530.427 552.709 534.821 552.965 539.856C553.05 541.648 553.093 543.269 553.093 544.72C553.093 546.171 553.05 547.835 552.965 549.712C552.794 554.491 552.026 558.715 550.661 562.384C549.296 566.053 547.418 569.168 545.029 571.728C542.64 574.203 539.824 576.08 536.581 577.36C533.338 578.64 529.712 579.28 525.701 579.28C521.776 579.28 518.32 578.64 515.333 577.36C512.346 575.995 509.872 573.904 507.909 571.088V598.992C507.909 599.931 507.568 600.699 506.885 601.296C506.202 601.979 505.434 602.32 504.581 602.32H484.869ZM516.997 559.312C519.216 559.312 520.922 558.885 522.117 558.032C523.397 557.093 524.293 555.856 524.805 554.32C525.402 552.699 525.786 550.864 525.957 548.816C526.213 546.085 526.213 543.355 525.957 540.624C525.786 538.576 525.402 536.784 524.805 535.248C524.293 533.627 523.397 532.389 522.117 531.536C520.922 530.597 519.216 530.128 516.997 530.128C514.778 530.128 512.986 530.597 511.621 531.536C510.341 532.475 509.402 533.712 508.805 535.248C508.293 536.784 507.994 538.491 507.909 540.368C507.824 542.16 507.781 543.781 507.781 545.232C507.781 546.597 507.824 548.176 507.909 549.968C507.994 551.76 508.336 553.339 508.933 554.704C509.616 556.069 510.597 557.179 511.877 558.032C513.157 558.885 514.864 559.312 516.997 559.312ZM557.379 578C556.44 578 555.63 577.701 554.947 577.104C554.35 576.421 554.051 575.611 554.051 574.672V514.768C554.051 513.829 554.35 513.061 554.947 512.464C555.63 511.781 556.44 511.44 557.379 511.44H575.939C576.878 511.44 577.646 511.781 578.243 512.464C578.926 513.061 579.267 513.829 579.267 514.768V519.504C581.827 517.029 584.728 515.067 587.971 513.616C591.299 512.165 594.926 511.44 598.851 511.44H604.611C605.55 511.44 606.36 511.781 607.043 512.464C607.726 513.061 608.067 513.829 608.067 514.768V531.28C608.067 532.219 607.726 533.029 607.043 533.712C606.36 534.395 605.55 534.736 604.611 534.736H590.275C587.203 534.736 584.856 535.547 583.235 537.168C581.614 538.704 580.803 541.008 580.803 544.08V574.672C580.803 575.611 580.462 576.421 579.779 577.104C579.182 577.701 578.414 578 577.475 578H557.379ZM638.451 579.28C627.784 579.28 619.294 576.549 612.979 571.088C606.75 565.541 603.55 557.093 603.379 545.744C603.379 545.403 603.379 544.976 603.379 544.464C603.379 543.867 603.379 543.44 603.379 543.184C603.635 536.101 605.171 530.128 607.987 525.264C610.888 520.315 614.899 516.56 620.019 514C625.224 511.44 631.326 510.16 638.323 510.16C646.174 510.16 652.659 511.739 657.779 514.896C662.984 517.968 666.867 522.107 669.427 527.312C671.987 532.432 673.267 538.192 673.267 544.592V548.176C673.267 549.029 672.926 549.797 672.243 550.48C671.56 551.163 670.75 551.504 669.811 551.504H630.387C630.387 551.504 630.387 551.589 630.387 551.76C630.387 551.931 630.387 552.101 630.387 552.272C630.387 554.32 630.643 556.155 631.155 557.776C631.752 559.312 632.648 560.549 633.843 561.488C635.038 562.341 636.488 562.768 638.195 562.768C639.304 562.768 640.243 562.597 641.011 562.256C641.779 561.915 642.419 561.488 642.931 560.976C643.528 560.379 644.04 559.824 644.467 559.312C645.235 558.544 645.875 558.075 646.387 557.904C646.899 557.648 647.667 557.52 648.691 557.52H668.787C669.555 557.52 670.195 557.776 670.707 558.288C671.304 558.8 671.56 559.44 671.475 560.208C671.39 561.744 670.664 563.621 669.299 565.84C667.934 567.973 665.886 570.064 663.155 572.112C660.51 574.16 657.096 575.867 652.915 577.232C648.734 578.597 643.912 579.28 638.451 579.28ZM630.387 537.168H646.259V536.912C646.259 534.608 645.96 532.645 645.363 531.024C644.766 529.403 643.87 528.208 642.675 527.44C641.48 526.587 640.03 526.16 638.323 526.16C636.616 526.16 635.166 526.587 633.971 527.44C632.776 528.208 631.88 529.403 631.283 531.024C630.686 532.645 630.387 534.608 630.387 536.912V537.168ZM676.899 578C675.96 578 675.15 577.701 674.467 577.104C673.87 576.421 673.571 575.611 673.571 574.672V514.768C673.571 513.829 673.87 513.061 674.467 512.464C675.15 511.781 675.96 511.44 676.899 511.44H695.459C696.398 511.44 697.166 511.781 697.763 512.464C698.446 513.061 698.787 513.829 698.787 514.768V519.376C701.006 516.816 703.95 514.64 707.619 512.848C711.288 511.056 715.47 510.16 720.163 510.16C724.771 510.16 728.952 511.227 732.707 513.36C736.462 515.493 739.491 518.693 741.795 522.96C744.099 527.227 745.251 532.603 745.251 539.088V574.672C745.251 575.611 744.91 576.421 744.227 577.104C743.544 577.701 742.734 578 741.795 578H721.571C720.632 578 719.822 577.701 719.139 577.104C718.542 576.421 718.243 575.611 718.243 574.672V539.984C718.243 536.827 717.475 534.395 715.939 532.688C714.403 530.981 712.227 530.128 709.411 530.128C706.595 530.128 704.376 530.981 702.755 532.688C701.134 534.395 700.323 536.827 700.323 539.984V574.672C700.323 575.611 699.982 576.421 699.299 577.104C698.702 577.701 697.934 578 696.995 578H676.899ZM772.797 579.28C768.872 579.28 765.288 578.683 762.045 577.488C758.802 576.293 755.986 574.459 753.597 571.984C751.208 569.509 749.33 566.395 747.965 562.64C746.6 558.885 745.789 554.491 745.533 549.456C745.448 547.579 745.405 545.957 745.405 544.592C745.405 543.227 745.448 541.648 745.533 539.856C745.704 535.077 746.472 530.853 747.837 527.184C749.202 523.429 751.08 520.315 753.469 517.84C755.858 515.365 758.674 513.488 761.917 512.208C765.245 510.843 768.872 510.16 772.797 510.16C776.637 510.16 780.05 510.8 783.037 512.08C786.024 513.275 788.541 514.896 790.589 516.944V490.448C790.589 489.509 790.888 488.741 791.485 488.144C792.168 487.461 792.978 487.12 793.917 487.12H813.629C814.568 487.12 815.336 487.461 815.933 488.144C816.616 488.741 816.957 489.509 816.957 490.448V574.672C816.957 575.611 816.616 576.421 815.933 577.104C815.336 577.701 814.568 578 813.629 578H795.453C794.6 578 793.832 577.701 793.149 577.104C792.466 576.421 792.125 575.611 792.125 574.672V571.088C790.077 573.563 787.474 575.568 784.317 577.104C781.245 578.555 777.405 579.28 772.797 579.28ZM781.501 559.312C783.72 559.312 785.469 558.843 786.749 557.904C788.114 556.965 789.053 555.728 789.565 554.192C790.162 552.656 790.504 550.949 790.589 549.072C790.76 547.195 790.845 545.573 790.845 544.208C790.845 542.843 790.76 541.264 790.589 539.472C790.504 537.68 790.12 536.101 789.437 534.736C788.84 533.371 787.901 532.261 786.621 531.408C785.341 530.555 783.634 530.128 781.501 530.128C779.368 530.128 777.661 530.597 776.381 531.536C775.101 532.389 774.162 533.627 773.565 535.248C773.053 536.784 772.712 538.576 772.541 540.624C772.285 543.355 772.285 546.085 772.541 548.816C772.712 550.864 773.053 552.699 773.565 554.32C774.162 555.856 775.101 557.093 776.381 558.032C777.661 558.885 779.368 559.312 781.501 559.312ZM852.731 579.28C842.064 579.28 833.574 576.549 827.259 571.088C821.03 565.541 817.83 557.093 817.659 545.744C817.659 545.403 817.659 544.976 817.659 544.464C817.659 543.867 817.659 543.44 817.659 543.184C817.915 536.101 819.451 530.128 822.267 525.264C825.168 520.315 829.179 516.56 834.299 514C839.504 511.44 845.606 510.16 852.603 510.16C860.454 510.16 866.939 511.739 872.059 514.896C877.264 517.968 881.147 522.107 883.707 527.312C886.267 532.432 887.547 538.192 887.547 544.592V548.176C887.547 549.029 887.206 549.797 886.523 550.48C885.84 551.163 885.03 551.504 884.091 551.504H844.667C844.667 551.504 844.667 551.589 844.667 551.76C844.667 551.931 844.667 552.101 844.667 552.272C844.667 554.32 844.923 556.155 845.435 557.776C846.032 559.312 846.928 560.549 848.123 561.488C849.318 562.341 850.768 562.768 852.475 562.768C853.584 562.768 854.523 562.597 855.291 562.256C856.059 561.915 856.699 561.488 857.211 560.976C857.808 560.379 858.32 559.824 858.747 559.312C859.515 558.544 860.155 558.075 860.667 557.904C861.179 557.648 861.947 557.52 862.971 557.52H883.067C883.835 557.52 884.475 557.776 884.987 558.288C885.584 558.8 885.84 559.44 885.755 560.208C885.67 561.744 884.944 563.621 883.579 565.84C882.214 567.973 880.166 570.064 877.435 572.112C874.79 574.16 871.376 575.867 867.195 577.232C863.014 578.597 858.192 579.28 852.731 579.28ZM844.667 537.168H860.539V536.912C860.539 534.608 860.24 532.645 859.643 531.024C859.046 529.403 858.15 528.208 856.955 527.44C855.76 526.587 854.31 526.16 852.603 526.16C850.896 526.16 849.446 526.587 848.251 527.44C847.056 528.208 846.16 529.403 845.563 531.024C844.966 532.645 844.667 534.608 844.667 536.912V537.168Z" fill="black"/>
</svg>
